# xmcd
#
# Track frame offsets:
# 150
# 5387
# 20169
# 26964
# 49983
# 61368
# 70173
# 81805
# 98915
# 114971
# 140255
# 152510
# 161832
# 168821
# 182330
# 200418
# 208341
# 216096
# 226127
# 235765
# 259413
# 266766
#
# Disc length: 3783 seconds
#
#
# Revision: 0
# Processed by: cddbd v1.5.2PL0 Copyright (c) Steve Scherf et al.
# Submitted via: FreeRIP 2.951 
#
DISCID=320ec516
DTITLE=Ben and Brian - Snakes On A Sleigh
DYEAR=2006
DGENRE=Country
TTITLE0=Introduction
TTITLE1=The White House Has Talent!
TTITLE2=Hammertime - Ben and Brian Band
TTITLE3=Hank Williams Jr. - Kenny Chesney Song - LIVE
TTITLE4=Frank Caliendo
TTITLE5=Michael Jackson's Ranch
TTITLE6=Tube Socks - Ben and Brian Band
TTITLE7=Joe Theismann Busts Ben
TTITLE8=Jake Johannsen
TTITLE9=Craig Morgan - Almost Home - LIVE
TTITLE10=Mission Impossible - Pots and Pans
TTITLE11=Fast and Furious - Kenny Rogers
TTITLE12=Snakes On A Plane - Ben and Brian Band
TTITLE13=Samuel L. Jackson Calls Kenny Rogers
TTITLE14=The Wreckers - Way Back Home - LIVE
TTITLE15=Todd Glass
TTITLE16=Living On Fast Food - Ben and Brian Band
TTITLE17=The Red Man In The Sky
TTITLE18=Pat Collins Busts Ben
TTITLE19=Jim Florentine
TTITLE20=Bomshel - O Holy Night - LIVE
TTITLE21=Close
EXTD=
EXTT0=
EXTT1=
EXTT2=
EXTT3=
EXTT4=
EXTT5=
EXTT6=
EXTT7=
EXTT8=
EXTT9=
EXTT10=
EXTT11=
EXTT12=
EXTT13=
EXTT14=
EXTT15=
EXTT16=
EXTT17=
EXTT18=
EXTT19=
EXTT20=
EXTT21=
PLAYORDER=
